# xmcd
#
# Track frame offsets:
#	150
#	22023
#	39227
#	56018
#	70892
#	93049
#	116112
#	136226
#	157110
#	176052
#	199860
#	225103
#	245072
#	263024
#	284970
#	308905
#	326118
#
# Disc length: 4383 seconds
#
# Revision: 0
# Processed by: cddbd v1.5.1PL0 Copyright (c) Steve Scherf et al.
# Submitted via: dBpowerAMP V4.0
#
DISCID=f8111d11
DTITLE=Desperados - The Dawn of Dying
DYEAR=2000
DGENRE=Country and Wester
TTITLE0=The dawn Of Dying
TTITLE1=As A Judgement
TTITLE2=Gomorrah Of The Plains
TTITLE3=The Dawn Of Dying
TTITLE4=My Gun And Me
TTITLE5=Gone With The Wind
TTITLE6=Rattlesnake Shake
TTITLE7=Riders In The Sky
TTITLE8=Devil's Horse
TTITLE9=Jumpin' Down The Running Train
TTITLE10=Dodge City
TTITLE11=Desperados
TTITLE12=The End
TTITLE13=Oriental Saloon
TTITLE14=Bonus 1 Track 15
TTITLE15=Bonus 2 Track 16
TTITLE16=Bonus 3 Track 17
EXTD=Country Metal Fusion
EXTT0=
EXTT1=
EXTT2=
EXTT3=
EXTT4=
EXTT5=
EXTT6=
EXTT7=
EXTT8=
EXTT9=
EXTT10=
EXTT11=
EXTT12=
EXTT13=
EXTT14=
EXTT15=
EXTT16=
PLAYORDER=
